<svg width="640" height="640" viewBox="0 0 640 640" fill="none" xmlns="http://www.w3.org/2000/svg">
  <rect width="640" height="640" rx="44" fill="url(#bg)"/>
  <circle cx="320" cy="320" r="182" fill="#FFF6DF"/>
  <ellipse cx="320" cy="368" rx="170" ry="56" fill="#D2B57B" fill-opacity="0.28"/>
  <path d="M228 240C228 223.431 241.431 210 258 210H382C398.569 210 412 223.431 412 240V400C412 416.569 398.569 430 382 430H258C241.431 430 228 416.569 228 400V240Z" fill="#A55F1D"/>
  <path d="M246 258C246 248.059 254.059 240 264 240H376C385.941 240 394 248.059 394 258V386C394 395.941 385.941 404 376 404H264C254.059 404 246 395.941 246 386V258Z" fill="#C8781C"/>
  <rect x="252" y="270" width="136" height="78" rx="18" fill="#FFF6E9"/>
  <path d="M270 366C297 338 344 338 370 366C348 389 292 391 270 366Z" fill="#F2BF3D"/>
  <path d="M286 354C307 335 336 334 354 354C339 367 301 368 286 354Z" fill="#E8A91E"/>
  <circle cx="320" cy="224" r="38" fill="#FFF0CA"/>
  <path d="M297 212C304 198 321 192 338 198C331 211 315 222 297 212Z" fill="#7BB26E"/>
  <defs>
    <linearGradient id="bg" x1="46" y1="38" x2="598" y2="602" gradientUnits="userSpaceOnUse">
      <stop stop-color="#F9E4B7"/>
      <stop offset="1" stop-color="#BC6D1B"/>
    </linearGradient>
  </defs>
</svg>
